<svg xmlns="http://www.w3.org/2000/svg" viewBox="0 0 462.93 466.11"><defs><style>.cls-1{font-size:40px;fill:#fff;font-family:Neou-Thin, Neou;}</style></defs><title>Asset 1</title><g id="Layer_2" data-name="Layer 2"><g id="Layer_1-2" data-name="Layer 1"><text class="cls-1" transform="translate(73.9 169.67) rotate(-63.37)">N</text><text class="cls-1" transform="matrix(0.59, -0.8, 0.8, 0.59, 85.13, 146.51)">o</text><text class="cls-1" transform="matrix(0.69, -0.73, 0.73, 0.69, 102.3, 123.72)">i</text><text class="cls-1" transform="matrix(0.76, -0.65, 0.65, 0.76, 111.27, 113.7)">s</text><text class="cls-1" transform="translate(128.99 98.51) rotate(-33.1)">e</text><text class="cls-1" transform="matrix(0.89, -0.46, 0.46, 0.89, 146.9, 87.04)"> </text><text class="cls-1" transform="translate(157.94 80.58) rotate(-19.7)">o</text><text class="cls-1" transform="translate(187.62 70.27) rotate(-10.59)">f</text><text class="cls-1" transform="matrix(1, -0.08, 0.08, 1, 209.29, 66.42)"> </text><text class="cls-1" transform="translate(222.02 64.84) rotate(2.62)">a</text><text class="cls-1" transform="translate(250.94 66.38) rotate(11.07)">l</text><text class="cls-1" transform="translate(271.8 70.4) rotate(18.29)">l</text><text class="cls-1" transform="matrix(0.91, 0.41, -0.41, 0.91, 292.06, 77.29)"> </text><text class="cls-1" transform="translate(303.94 82.24) rotate(30.53)">t</text><text class="cls-1" transform="translate(324.44 94.18) rotate(38.98)">h</text><text class="cls-1" transform="translate(344.24 110.31) rotate(46.92)">e</text><text class="cls-1" transform="matrix(0.61, 0.8, -0.8, 0.61, 358.65, 125.98)"> </text><text class="cls-1" transform="translate(366.73 136.03) rotate(59.01)">t</text><text class="cls-1" transform="matrix(0.38, 0.92, -0.92, 0.38, 379.06, 156.29)">h</text><text class="cls-1" transform="translate(388.66 180.09) rotate(74.28)">i</text><text class="cls-1" transform="translate(393 194.01) rotate(81.27)">n</text><text class="cls-1" transform="translate(397.23 219.39) rotate(91.03)">g</text><text class="cls-1" transform="translate(396.43 250.58) rotate(100.22)">s</text><text class="cls-1" transform="matrix(-0.28, 0.96, -0.96, -0.28, 392.02, 273.65)"> </text><text class="cls-1" transform="matrix(-0.39, 0.92, -0.92, -0.39, 388.8, 286.09)">h</text><text class="cls-1" transform="translate(379.07 309.59) rotate(122.35)">a</text><text class="cls-1" transform="translate(363.42 333.94) rotate(131.04)">p</text><text class="cls-1" transform="matrix(-0.75, 0.66, -0.66, -0.75, 349.06, 350.52)">p</text><text class="cls-1" transform="matrix(-0.83, 0.56, -0.56, -0.83, 332.64, 365.08)">e</text><text class="cls-1" transform="translate(315.36 377.1) rotate(153.81)">n</text><text class="cls-1" transform="translate(291.88 388.32) rotate(160.75)">i</text><text class="cls-1" transform="translate(278.25 393.5) rotate(167.72)">n</text><text class="cls-1" transform="matrix(-1, 0.04, -0.04, -1, 253.15, 399.3)">g</text><text class="cls-1" transform="translate(221.79 400.1) rotate(-174.95)"> </text><text class="cls-1" transform="matrix(-0.98, -0.21, 0.21, -0.98, 208.97, 399.53)">a</text><text class="cls-1" transform="translate(180.7 393.24) rotate(-159.35)">l</text><text class="cls-1" transform="translate(160.77 385.54) rotate(-153.45)"> </text><text class="cls-1" transform="translate(149.09 380.09) rotate(-147.11)">t</text><text class="cls-1" transform="matrix(-0.75, -0.66, 0.66, -0.75, 129.1, 367.33)">h</text><text class="cls-1" transform="translate(109.98 350.4) rotate(-130.74)">e</text><text class="cls-1" transform="matrix(-0.57, -0.82, 0.82, -0.57, 96.22, 334.15)"> </text><text class="cls-1" transform="translate(88.56 323.78) rotate(-118.66)">t</text><text class="cls-1" transform="translate(77.29 302.7) rotate(-112.09)">i</text><text class="cls-1" transform="translate(71.28 289.5) rotate(-104.4)">m</text><text class="cls-1" transform="translate(64.01 260.04) rotate(-95.56)">e</text></g></g></svg>